<?xml version="1.0" encoding="UTF-8" standalone="no"?>
<svg xmlns:dc="http://purl.org/dc/elements/1.1/"
   xmlns:cc="http://creativecommons.org/ns#"
   xmlns:rdf="http://www.w3.org/1999/02/22-rdf-syntax-ns#"
   xmlns:svg="http://www.w3.org/2000/svg"
   xmlns="http://www.w3.org/2000/svg"
   xmlns:sodipodi="http://sodipodi.sourceforge.net/DTD/sodipodi-0.dtd"
   xmlns:inkscape="http://www.inkscape.org/namespaces/inkscape"
   version="1.1"
   viewBox="-10 0 271 256"
   id="svg3"
   inkscape:version="1.0.2-2 (e86c870879, 2021-01-15)">

  <path class="pen line-hsuan-1"
     d="m 83.154762,60.098214 c 2.207517,2.756062 13.319149,6.785527 13.985119,9.449405 2.097366,8.389463 -9.722795,12.923565 -15.875,13.607143" />

  <path class="pen line-hsuan-2"
     d="m 39.309524,116.41667 c 2.44188,0.42205 3.328396,2.6018 5.291666,3.77976 3.864765,2.31886 25.998664,-8.23814 30.238096,-9.44941 17.650665,-5.04304 35.134174,-11.051397 52.916664,-15.49702 6.53731,-1.634326 18.65043,-7.14267 26.08036,-4.91369 2.11101,0.633303 3.77976,2.267857 5.66964,3.401785" />

  <path class="pen line-hsuan-3"
     d="m 97.517857,108.10119 c -0.347024,4.50183 0.499364,9.22044 -0.377976,13.60714 -0.270318,1.35159 -0.972159,1.56634 -1.511905,2.64584 -0.909651,1.8193 -0.944826,4.53548 -1.889881,6.42559 -2.327051,4.6541 -4.861183,9.50713 -6.803571,14.3631 -2.793439,6.98359 -5.93975,14.3093 -9.827381,20.78869 -2.691793,4.48632 -11.830414,14.06215 -10.96131,19.27678 0.234813,1.40888 9.586089,-2.94338 10.96131,-3.40178 9.146317,-3.04877 12.152192,-6.7423 20.032738,-11.33929 2.884069,-1.68237 10.445229,-4.70654 12.095239,-7.18155" />

  <path class="pen line-hsuan-4"
     d="m 120.19643,150.43452 c -6.13322,3.42311 -6.93798,10.91304 -10.20536,16.63096 -2.52843,4.42475 -6.69586,8.26194 -9.4494,12.85119 -5.442738,9.07122 -10.057625,18.52659 -15.497027,27.59226 -0.729683,1.21614 -8.820951,14.82456 -7.9375,15.11905 3.98429,1.32809 7.876514,-2.82194 10.961309,-4.53572 1.393134,-0.77396 3.048253,-0.9398 4.535715,-1.5119 4.9153,-1.8905 9.674783,-4.19198 14.741073,-5.66965 3.19066,-0.93061 6.7482,-1.0501 9.82738,-1.88988 2.7956,-0.76243 4.94503,-1.88988 7.9375,-1.88988" />

  <path class="pen line-hsuan-5"
     d="m 120.95238,197.68155 c 0.83795,4.61913 5.06753,6.89587 8.69345,9.07143 3.90548,2.34328 8.33749,6.39675 11.33929,9.82738 0.80643,0.92163 5.34961,5.78553 5.66964,6.42559 0.94781,1.89562 -0.21984,1.67005 -1.5119,0.37798" />
</svg>