<?xml version="1.0" encoding="UTF-8" standalone="no"?>
<svg xmlns:dc="http://purl.org/dc/elements/1.1/"
   xmlns:cc="http://creativecommons.org/ns#"
   xmlns:rdf="http://www.w3.org/1999/02/22-rdf-syntax-ns#"
   xmlns:svg="http://www.w3.org/2000/svg"
   xmlns="http://www.w3.org/2000/svg"
   xmlns:sodipodi="http://sodipodi.sourceforge.net/DTD/sodipodi-0.dtd"
   xmlns:inkscape="http://www.inkscape.org/namespaces/inkscape"
   version="1.1"
   viewBox="-10 0 271 256"
   id="svg1"
   inkscape:version="1.0.2-2 (e86c870879, 2021-01-15)">

  <path class="pen line-tsai-1" d="m 55,55 c 0.677792,-0.385828 1.462267,-0.728619 2.274419,-0.525581 0.696935,0.174234 1.724411,0.07868 2.381395,0.297674 0.769884,0.256628 1.298684,0.631344 2.083721,0.893023 0.604734,0.201578 6.703988,-0.113206 7.44186,-0.297674 0.136136,-0.03403 0.161539,-0.263641 0.297675,-0.297675 0.385049,-0.09626 0.8357,0.177499 1.190697,0 0.94728,-0.473639 2.171546,-0.914979 3.274419,-1.190697 0.608102,-0.152026 1.520225,-0.05618 2.083721,-0.297675 0.531794,-0.227912 0.956578,-0.665111 1.488372,-0.893023 0.706027,-0.302583 2.968348,-0.324923 3.869768,-0.595349 2.141611,-0.642483 4.374159,-0.867035 6.548837,-1.488372 0.898699,-0.256771 1.748145,-0.660292 2.679066,-0.893023 1.34578,-0.336444 2.86655,-0.223665 4.16745,-0.595349 2.08372,-0.595349 0.44651,-0.446512 1.78604,-0.893023 1.13026,-0.376753 2.74555,0.07706 3.86977,-0.297675 0.26625,-0.08875 0.36183,-0.439672 0.59535,-0.595348 0.42774,-0.285163 2.13377,-0.161349 2.67907,-0.297675 2.46535,-0.616338 4.94127,-1.369282 7.44186,-1.786046 0.94445,-0.157409 2.05367,-0.06691 2.97674,-0.297675 1.00452,-0.25113 1.69001,-0.695211 2.67907,-0.893023 1.03785,-0.207569 1.87733,0.04061 2.97675,-0.297674 1.11003,-0.341551 2.12882,-0.999766 3.27442,-1.190698 1.84151,-0.306919 3.79478,-0.246406 5.65581,-0.595349 0.19983,-0.03747 5.18757,-0.923128 5.65581,-1.190698 1.59464,-0.911222 1.97204,-1.767432 3.86977,-2.083721 1.3606,-0.226765 2.76808,-0.06445 4.16744,-0.297674 2.24592,-0.374319 0.0942,-0.333303 2.97675,-0.595349 0.49408,-0.04492 1.00406,0.107625 1.48837,0 0.43318,-0.09626 0.7602,-0.487724 1.1907,-0.595349 3.96899,-0.992248 0.12403,0.248062 1.48837,0 1.8151,-0.330019 4.16535,-0.445989 5.95349,-0.893023 0.51838,-0.129597 0.96675,-0.479434 1.48837,-0.595349 0.83734,-0.186076 1.81953,0.08595 2.67907,0 1.64025,-0.164025 2.38321,-0.265003 3.86977,-0.595349 1.9544,-0.434312 3.44502,-1.446017 5.35814,-2.083721 1.16404,-0.388014 2.96504,-0.475109 4.16744,-0.595348 1.17475,-0.117476 2.41126,-0.104203 3.57209,-0.297675 0.21886,-0.03648 0.3969,-0.198449 0.59535,-0.297674 0.49612,-0.09923 0.98633,-0.234919 1.48837,-0.297675 0.48581,-0.06073 1.30092,0.161708 1.78605,0 0.21049,-0.07016 0.3757,-0.266296 0.59535,-0.297674 0.46989,-0.06713 5.40514,-0.047 5.65581,-0.297674 C 187.23569,30.485237 185.62627,30.234645 185,30"/>

  <path class="pen line-tsai-2" d="m 75,30 c 2.059992,1.239343 4.722983,2.990152 5.790698,5.125581 0.298809,0.597619 1.113264,0.925711 1.488372,1.488372 0.703628,1.055443 1.026129,2.026848 1.786046,2.976745 1.079518,1.349397 3.167089,3.357433 3.869768,4.76279 0.182961,0.365923 0.114713,0.824775 0.297674,1.190698 0.125511,0.251021 0.469838,0.344328 0.595349,0.595349 0.08875,0.177499 -0.105178,0.427064 0,0.595349 0.410734,0.657173 0.940385,1.238059 1.488373,1.786046 0.0702,0.07016 0.2533,-0.08875 0.29767,0 0.18296,0.365923 0.1683,0.802578 0.29768,1.190698 0.16083,0.482485 0.78736,1.065724 0.89302,1.488372 0.0722,0.288787 -0.11726,0.619417 0,0.893023 1.00574,2.34672 0.65712,0.226503 1.48837,3.274419 0.77044,0.610589 0.12751,1.403044 0.29768,2.083721 0.10762,0.430497 0.50832,0.755568 0.59535,1.190697 0.0584,0.291894 -0.0941,0.610625 0,0.893024 0.0314,0.09413 0.21152,-0.04923 0.29767,0 C 94.68483,59.649805 94.82791,59.844961 95,60"/>

  <path class="pen line-tsai-3" d="m 150,10 c -0.44743,1.881726 -0.26703,4.564158 -1.04186,6.372093 -1.08337,2.527852 -0.75626,0.414334 -1.48837,2.976744 -0.19331,0.676566 -0.13411,1.171065 -0.59535,1.786047 -1.62527,2.16703 0.40967,-0.521672 -0.89302,2.083721 -0.38173,0.763451 -1.10665,1.32027 -1.48838,2.083721 -1.25525,2.510515 -1.36746,2.646541 -2.97674,5.060465 -0.62389,0.93584 -0.61246,2.262494 -1.1907,3.274418 -0.13924,0.243673 -0.42696,0.370829 -0.59535,0.595349 -0.86485,1.153143 -1.00893,2.704099 -1.78604,3.869768 -0.23352,0.350272 -0.65951,0.54275 -0.89303,0.893023 -0.17405,0.261078 -0.13624,0.623962 -0.29767,0.893023 -0.27122,0.452038 -1.1821,1.377686 -1.48837,1.786047 -0.13313,0.177498 -0.47228,0.113064 -0.59535,0.297674 -0.2325,0.348747 -0.25305,1.146072 -0.59535,1.488372 -0.25298,0.252975 -0.64005,0.342374 -0.89302,0.595349 -1.67466,-0.158503 -0.31127,0.849802 -0.59535,1.190698 -0.62884,0.754605 -1.53886,1.266418 -2.08372,2.083721 -0.84732,1.270966 -1.54746,3.333506 -2.67907,4.465116 -0.14148,0.141473 -1.04923,0.453876 -1.1907,0.595349 -0.97695,0.976952 -2.07633,2.223931 -2.97675,3.274418 -0.87804,1.024384 -1.74626,2.341613 -2.67907,3.274419 -0.0702,0.07016 -0.2533,-0.08875 -0.29767,0 -0.18296,0.365923 -0.14573,0.810844 -0.29767,1.190698 -0.20847,0.521154 -1.44172,1.692739 -1.1907,1.190697 C 119.42163,60.859067 119.73023,60.44031 120,60"/>

  <path class="pen line-tsai-4" d="m 80,70 c -0.629457,1.075969 -1.435723,2.066428 -1.888372,3.227907 -0.290485,0.745372 -0.15457,1.594323 -0.297675,2.381395 -0.132217,0.727196 -1.009889,3.87749 -1.190697,4.465117 2.020898,2.266196 -0.910048,1.539445 -1.190698,2.381395 -0.190863,0.572588 -0.02775,1.246205 -0.297674,1.786046 -2.031376,4.062751 -2.950748,8.948173 -5.35814,12.8 -1.806578,2.890525 -3.922782,5.62728 -5.953488,8.33488 -0.567224,0.7563 -2.000552,1.32204 -2.381396,2.08373 -0.04437,0.0887 0,0.19844 0,0.29767 C 60.96124,108.50543 60.48062,109.25271 60,110"/>

  <path class="pen line-tsai-5" d="m 75,90 c -0.153488,0.164341 -0.624806,0.339535 -0.460465,0.493023 C 74.703876,90.646512 74.776505,90.024833 75,90 c 0.737855,-0.08198 1.476822,0.225514 2.218605,0.195349 0.140209,-0.0057 0.16455,-0.2533 0.297674,-0.297675 0.188266,-0.06275 0.396899,0 0.595349,0 0.595349,-0.198449 1.224746,-0.314698 1.786046,-0.595348 0.443747,-0.221874 0.777898,-0.617824 1.190698,-0.893024 1.143722,-0.762481 0.04368,0.275836 1.786047,-0.595349 0.251021,-0.12551 0.344327,-0.469838 0.595348,-0.595348 0.365923,-0.182962 0.793799,-0.19845 1.190698,-0.297675 0.595349,-0.396899 1.146066,-0.870707 1.786047,-1.190697 0.804152,-0.402077 2.122449,-0.310584 2.976744,-0.595349 1.313624,-0.437874 3.437604,-1.792425 4.762794,-2.381396 0.91289,-0.40573 2.14246,-0.336833 2.97674,-0.893023 1.21307,-0.808712 2.35155,-1.47345 3.57209,-2.083721 0.31752,-0.15876 0.87318,0.15876 1.1907,0 0.44372,-0.22186 0.5546,-0.834055 1.1907,-0.595349 C 103.75727,79.421936 104.37209,79.727132 105,80"/>

  <path class="pen line-tsai-6" d="m 105,80 c -0.62791,0.223256 -1.38108,0.232199 -1.88372,0.669767 -0.40302,0.350849 -0.35638,1.010443 -0.59535,1.488373 -0.94901,1.898017 -2.34681,3.8006 -3.27442,5.655813 -1.02753,2.055071 0.8722,-0.506654 -1.1907,2.381396 -1.24325,1.740558 -2.58579,3.409647 -3.86976,5.060465 -1.20354,1.547407 -1.40865,3.439214 -2.3814,5.060466 -0.43915,0.73192 -1.0149,1.37351 -1.48837,2.08372 -0.762482,1.14372 0.27583,0.0437 -0.59535,1.78605 -0.543822,1.08764 -1.237453,2.17723 -1.786046,3.27442 -0.473771,0.94754 -1.642455,1.68622 -2.083721,2.67906 -0.205486,0.46235 -0.137679,1.00839 -0.297675,1.48838 -0.571925,1.71577 -2.028092,3.32452 -2.679069,5.06046 -0.209041,0.55744 0.163555,1.21361 0,1.78605 -0.711528,2.49035 -0.327336,0.0593 -0.893024,1.1907 -0.711433,1.42286 -1.079138,3.0513 -1.786046,4.46511 -0.258747,0.5175 -0.695299,0.94463 -0.893023,1.48837 -0.998705,0.67488 -0.0779,1.6122 -0.297675,2.3814 -1.027914,3.5977 -3.189521,6.91072 -4.465116,10.4186 -0.406223,1.11712 -0.512388,2.43019 -0.893023,3.5721 -0.367315,1.10194 -1.311713,2.23088 -1.786047,3.27442 -0.221112,0.48644 -0.298949,1.04377 -0.595349,1.48837 -0.311353,0.46703 -0.864448,0.73395 -1.190697,1.1907 -0.182379,0.25533 -0.145292,0.61873 -0.297675,0.89302 -0.754154,1.35748 -2.040112,3.21627 -2.976744,4.46512 -1.01549,1.35398 -1.940535,2.71674 -2.976744,4.16744 -0.318937,0.44651 -0.552824,0.29767 -0.893023,0.89302 -0.265108,0.46394 -0.330241,1.02443 -0.595349,1.48837 -0.402093,0.70367 -0.992418,0.69475 -1.488372,1.1907 -1.022005,1.022 -1.658879,2.30769 -2.381396,3.57209 -0.417724,0.73102 -1.226685,1.15677 -1.786046,1.78605 -1.005405,1.13108 -1.913561,2.50891 -2.976744,3.57209 -0.252975,0.25298 -0.640049,0.34238 -0.893024,0.59535 -1.604162,1.60416 -2.945179,3.82242 -4.167442,5.65582 -0.793598,1.19039 -2.251722,2.06605 -2.976744,3.27441 -1.121759,1.8696 -2.73722,3.57037 -4.167442,5.35814 -0.902187,1.12774 -1.47255,2.43604 -2.381395,3.5721 -0.718088,0.89761 -1.748453,1.72965 -2.381395,2.67907 -0.05122,0.0768 -0.99168,2.34737 -1.190698,2.67907 -0.272038,0.45339 -2.028053,1.73037 -2.381395,2.08372 -0.66267,0.66267 0.107095,0.88121 -0.297675,1.48837 -0.123073,0.18461 -0.41785,0.16455 -0.595349,0.29767 C 31.346315,198.3484 30.927531,199.26437 30,200"/>

  <path class="pen line-tsai-7" d="m 75,105 c 1.136434,-0.76744 2.144603,-1.77224 3.409302,-2.30233 0.836988,-0.35081 6.71827,0 8.03721,0 1.329536,0 2.748251,-0.43137 2.679069,-0.29767 C 88.825907,102.97915 88.375194,103.46667 88,104"/>

  <path class="pen line-tsai-8"
     d="m 55,135 c 4.579101,0.56063 2.576189,0.44069 4.655814,-0.15349 0.792131,-0.22632 1.884904,-0.29754 2.67907,-0.59535 1.125782,-0.42217 1.366357,-0.98085 2.381395,-1.48837 0.365923,-0.18296 0.839885,-0.0872 1.190698,-0.29767 1.395956,-0.83758 2.576875,-2.00708 3.869767,-2.97675 0.615191,-0.46139 0.833282,-1.4585 1.488372,-1.78604 0.524152,-0.26208 1.694783,-0.50409 2.083721,-0.89303 0.07016,-0.0702 -0.07016,-0.22751 0,-0.29767 0.518431,-0.51843 2.601041,-1.85926 3.274419,-2.08372 0.188266,-0.0628 0.41785,0.0888 0.595349,0 0.251021,-0.12551 0.320453,-0.65189 0.595348,-0.59535 C 78.623098,123.99899 79.271318,124.61085 80,125" />

  <path class="pen line-tsai-9"
     d="m 139.13488,72.334884 c 6.52338,2.139991 12.88235,-0.594353 19.34884,-2.976744 1.69199,-0.623366 2.6235,-0.804712 4.16744,-1.190698 0.21525,-0.05381 0.675,-0.504759 0.59535,-0.297675 -2.74601,7.13964 -8.75248,11.627347 -13.39535,17.265117 -3.7863,4.597649 -6.7493,9.916031 -10.4186,14.586046 -4.12255,5.24687 -15.30399,10.58044 -21.13489,13.39535 -4.46152,2.15384 -9.19727,3.85751 -13.69302,5.65581 -0.65023,0.2601 -1.64441,0 -2.38139,0 -0.3969,0 -1.13708,0.39326 -1.1907,0 -0.29525,-2.16516 -0.9115,-4.45162 -0.29768,-6.54883 0.64167,-2.19236 2.52619,-3.8084 3.86977,-5.65582 5.67771,-7.806843 14.50911,-14.28837 24.4093,-14.28837 0.87207,0 2.88751,-0.155677 3.86977,0.297674 3.25484,1.502234 3.49557,3.550859 5.65581,6.251163 3.34301,4.178763 7.41557,8.227483 11.01396,12.204653 4.28403,4.73498 9.14346,8.90964 13.39535,13.69302 3.11779,3.50751 5.75946,7.34278 8.63256,11.01395 4.18754,5.35076 8.73223,11.98042 14.28837,16.07442 11.34357,8.35843 27.26486,1.74566 39.88837,5.95349" />

  <path
     d="m 95,140 c 0.0264,0.36589 -0.04,0.7507 0.0791,1.09767 0.047,0.13708 3.73362,0.0272 3.86977,0 1.19787,-0.23957 0.13677,-0.21722 0.89302,-0.59534 0.82897,-0.41449 3.03496,-0.57998 3.86977,-0.89303 3.2805,-1.23019 6.34943,-3.07555 9.52558,-4.46511 3.60965,-1.57923 7.44839,-2.28508 11.01395,-3.86977 1.02415,-0.45518 2.29412,-0.1052 3.27442,-0.59535 C 130.50467,129.18953 131.91817,128.82145 135,130" class="pen line-tsai-10" />

  <path
     d="m 70,170 c -0.07442,0.18915 -0.412403,0.49302 -0.223256,0.56744 C 69.965891,170.64186 69.79674,170 70,170 c 0.743831,0 1.429618,0.41731 2.15814,0.56744 0.648759,0.1337 1.413342,0 2.08372,0 5.799726,0 9.94077,-2.22904 15.47907,-4.16744 0.47754,-0.16714 1.02333,-0.0984 1.48837,-0.29767 0.81574,-0.34961 1.53945,-0.91005 2.3814,-1.1907 0.29192,-0.0973 1.72538,-0.38035 2.08372,-0.59535 1.04107,-0.62465 2.29164,-1.82763 3.57209,-2.08372 0.70146,-0.14029 1.395,-0.1255 2.08372,-0.29768 1.04197,-0.26049 1.89935,-1.16515 2.97675,-1.48837 0.16808,-0.0504 3.47538,-0.6301 3.86976,-0.89302 0.64482,-0.42988 1.0929,-1.1418 1.78605,-1.48837 0.355,-0.1775 0.79841,0.0603 1.1907,0 3.07298,-0.47277 6.14363,-1.04776 9.22791,-1.48838 1.37868,-0.19695 2.7937,-0.0687 4.16744,-0.29767 0.13841,-0.0231 0.16455,-0.2533 0.29767,-0.29767 0.32294,-0.10765 0.87014,0.13738 1.1907,0 0.82661,-0.35427 2.01328,-1.07027 2.97674,-1.1907 1.38194,-0.17274 2.79371,-0.0687 4.16745,-0.29768 0.4377,-0.0729 0.7602,-0.48772 1.19069,-0.59535 1.17108,-0.29277 2.3978,-0.31575 3.5721,-0.59534 0.91573,-0.21804 1.75863,-0.69579 2.67907,-0.89303 0.48511,-0.10395 0.99471,0.0494 1.48837,0 0.91027,-0.091 1.7688,-0.50432 2.67907,-0.59535 1.04661,-0.10466 3.75893,-0.0467 4.76279,-0.29767 0.4305,-0.10763 0.76972,-0.45502 1.1907,-0.59535 0.82102,-0.27367 7.36014,-0.12646 7.73953,0 0.47969,0.1599 4.3131,1.6443 4.46512,1.48837 C 163.6851,151.65408 164.31628,150.8031 165,150" class="pen line-tsai-11" />

  <path
     d="m 115.91628,158.66047 c 3.32261,4.7187 1.80985,10.26375 2.67907,15.47906 0.62778,3.76668 0.95031,7.54518 1.48837,11.31163 0.32197,2.25382 1.05617,3.82973 1.1907,6.25117 0.49805,8.96493 0,18.11554 0,27.08837 0,3.04336 0.43083,6.50979 0,9.52558 -0.37379,2.61653 -1.26292,5.42158 -1.78605,8.03721 -0.16058,0.80293 0.48162,2.49513 0,2.97674 -0.49612,0.49613 -1.52242,0.1233 -2.08372,-0.29767 -1.72341,-1.29256 -1.31516,-5.32564 -2.67907,-7.14419 -0.46498,-0.61997 -1.30725,-0.879 -1.78605,-1.48837 -2.01868,-2.56924 -3.28099,-5.30387 -5.95348,-7.44186" class="pen line-tsai-12" />

  <path
     d="m 80,190 c -0.530233,0.26977 -1.207443,0.35429 -1.590698,0.8093 -1.257,1.49236 -1.51862,12.61851 -1.190697,14.58605 0.18599,1.11594 0.618633,2.17686 0.893023,3.27442 0.409413,1.63765 1.509144,3.90438 2.381395,5.35814 0.393982,0.65663 1.249324,1.49762 1.190698,1.48837 C 81.103857,215.42482 80.56124,215.17209 80,215" class="pen line-tsai-13" />

  <path
     d="m 153,183 c 0.95322,1.28416 2.80149,1.5984 3.99535,2.45116 0.517,0.36929 0.68242,1.10717 1.1907,1.48837 0.5202,0.39015 0.88803,0.29519 1.48837,0.59535 0.44375,0.22188 0.54221,0.83989 0.89302,1.1907 0.35225,0.35225 1.61892,1.33344 2.08372,1.48837 0.18827,0.0628 0.41785,-0.0888 0.59535,0 0.59645,0.29823 5.04528,5.43712 5.65582,6.25117 0.36832,0.49109 0.88837,1.87752 1.19069,2.38139 1.04317,1.73862 2.31981,3.08966 2.97675,5.06047 0.28561,0.85683 1.73048,3.51653 2.38139,4.16744 0.0992,0.0992 0.32969,0.16105 0.29768,0.29767 C 175.61258,208.95364 175.24961,209.45736 175,210" class="pen line-tsai-14" />
</svg>