<?xml version="1.0" encoding="UTF-8" standalone="no"?>
<!-- Created with Inkscape (http://www.inkscape.org/) -->

<svg
   xmlns:dc="http://purl.org/dc/elements/1.1/"
   xmlns:cc="http://creativecommons.org/ns#"
   xmlns:rdf="http://www.w3.org/1999/02/22-rdf-syntax-ns#"
   xmlns:svg="http://www.w3.org/2000/svg"
   xmlns="http://www.w3.org/2000/svg"
   xmlns:sodipodi="http://sodipodi.sourceforge.net/DTD/sodipodi-0.dtd"
   xmlns:inkscape="http://www.inkscape.org/namespaces/inkscape"
   width="210mm"
   height="297mm"
   viewBox="0 0 210 297"
   version="1.1"
   id="svg8"
   inkscape:version="0.92.2 5c3e80d, 2017-08-06"
   sodipodi:docname="lion2.svg">
  <defs
     id="defs2" />
  <sodipodi:namedview
     id="base"
     pagecolor="#ffffff"
     bordercolor="#666666"
     borderopacity="1.0"
     inkscape:pageopacity="0.0"
     inkscape:pageshadow="2"
     inkscape:zoom="1.979899"
     inkscape:cx="407.53577"
     inkscape:cy="581.9546"
     inkscape:document-units="mm"
     inkscape:current-layer="layer1"
     showgrid="false"
     inkscape:window-width="1280"
     inkscape:window-height="756"
     inkscape:window-x="-5"
     inkscape:window-y="0"
     inkscape:window-maximized="0" />
  <metadata
     id="metadata5">
    <rdf:RDF>
      <cc:Work
         rdf:about="">
        <dc:format>image/svg+xml</dc:format>
        <dc:type
           rdf:resource="http://purl.org/dc/dcmitype/StillImage" />
        <dc:title></dc:title>
      </cc:Work>
    </rdf:RDF>
  </metadata>
  <g
     inkscape:label="Layer 1"
     inkscape:groupmode="layer"
     id="layer1">
    <path
       style="fill:#000000;stroke-width:0.23908918"
       d="m 123.52002,190.51381 c -0.34253,-0.19343 -0.37451,-0.33505 -0.16242,-0.71931 0.4461,-0.80827 -0.008,-0.82139 -0.65549,-0.019 -0.69835,0.86525 -1.18559,0.9293 -2.86044,0.37592 -0.94327,-0.31165 -1.13021,-0.46351 -1.01445,-0.82402 0.0781,-0.24308 0.20929,-0.65385 0.29163,-0.91284 0.10352,-0.32555 0.0378,-0.47086 -0.21306,-0.47086 -0.19954,0 -0.48933,-0.14785 -0.64398,-0.32855 -0.58253,-0.6806 2.41147,-4.69889 3.68517,-4.9459 0.48819,-0.0947 1.40148,0.0829 2.75646,0.53569 1.46236,0.48877 2.08767,0.60359 2.2466,0.41252 0.12112,-0.14562 0.34737,-1.2038 0.50275,-2.35152 0.39523,-2.919 0.33276,-2.9751 -3.31315,-2.9751 -3.93088,0 -4.64164,-0.45937 -6.37472,-4.12012 -1.64835,-3.48178 -3.59986,-5.03584 -6.58469,-5.24362 -1.27113,-0.0884 -1.83315,-0.0102 -2.75079,0.38347 -2.9204,1.25265 -4.09552,3.03819 -4.12831,6.27276 -0.0214,2.10763 0.46028,3.33348 1.88153,4.78864 0.75282,0.77078 5.30195,1.99556 4.82589,2.32606 -0.90679,0.62953 -16.676513,5.88162 -17.965917,6.51485 l -1.282357,0.62977 -1.077141,-0.46202 -1.077144,-0.46202 -0.473582,0.63087 c -0.44814,0.59697 -0.582264,0.63086 -2.496488,0.63086 h -2.022905 l 0.07121,-0.88288 c 0.03917,-0.48558 0.02265,-0.88289 -0.03672,-0.88289 -0.05935,0 -0.340116,0.3816 -0.623902,0.848 -0.564228,0.92729 -0.919379,0.94979 -2.627683,0.16649 -0.882141,-0.40449 -0.98983,-0.8969 -0.426971,-1.95234 0.326868,-0.61293 0.320958,-0.74866 -0.0607,-1.39418 l -0.422826,-0.71515 1.699596,-1.66184 c 2.914674,-2.84995 4.337357,-3.16312 6.824342,-1.50221 1.179772,0.78789 1.369571,0.84523 1.949515,0.589 1.243322,-0.54931 4.019765,-2.40602 5.203859,-3.48001 1.069792,-0.97031 1.197249,-1.19209 1.197249,-2.08323 0,-0.8598 -0.183192,-1.21401 -1.328662,-2.56909 -2.225898,-2.6332 -3.512361,-5.9175 -3.523112,-8.9944 -0.0069,-1.98229 -0.160448,-2.77574 1.08515,-4.09729 1.014547,-1.07642 1.801007,-1.17593 3.153764,-1.531 1.429394,-0.37518 1.884587,-0.38526 4.983635,-0.11042 1.87582,0.16637 3.46566,0.24906 3.53298,0.18378 0.0674,-0.0653 -0.79838,-0.54712 -1.9238,-1.07076 -4.76385,-2.21652 -7.897922,-4.93793 -8.6717,-7.52987 -0.351071,-1.17599 -0.08186,-1.13693 -5.199237,-0.7544 -1.869555,0.13975 -4.191325,0.30948 -5.159488,0.37719 l -1.760296,0.12309 -0.0033,0.98051 c -0.0051,1.51787 -0.218471,1.98681 -1.028438,2.2606 -1.253601,0.42376 -1.817938,0.31842 -2.059547,-0.38443 -0.212169,-0.6172 -0.226903,-0.60443 -0.535435,0.46412 -0.361649,1.25251 -0.747027,1.46151 -2.27139,1.23183 -1.673748,-0.25218 -1.871458,-0.35157 -1.871458,-0.94072 0,-0.42124 -0.170548,-0.59033 -0.711622,-0.70556 -1.210282,-0.25777 -1.372536,-0.66321 -0.877919,-2.19373 0.873022,-2.70145 1.926381,-4.188 3.531936,-4.98443 0.851124,-0.4222 9.594456,-3.80797 10.622476,-4.11345 0.300464,-0.0893 0.546299,-0.24071 0.546299,-0.3365 0,-0.0958 -0.682874,-0.66472 -1.517496,-1.26429 -0.834623,-0.59958 -2.446205,-1.8897 -3.581292,-2.86694 -1.162057,-1.00045 -2.28666,-1.7784 -2.573863,-1.78049 -1.008076,-0.007 -2.055417,0.52072 -2.431484,1.2259 -0.353567,0.66299 -0.441273,0.6978 -1.388719,0.55116 -1.49979,-0.23211 -2.145301,-0.71488 -1.9524,-1.46015 0.140872,-0.54425 0.108549,-0.58158 -0.313815,-0.36239 -0.618803,0.32113 -0.952854,0.0932 -1.406479,-0.95951 -0.488534,-1.13377 -0.472511,-1.81909 0.05128,-2.19333 0.2759,-0.19714 0.424899,-0.61903 0.424899,-1.20314 v -0.89955 l 2.341846,-1.10019 c 3.364734,-1.58074 4.039386,-1.63283 6.286801,-0.48538 0.99645,0.50874 3.519955,1.79112 5.607785,2.84972 l 3.796055,1.92473 0.163701,-0.88813 c 0.267059,-1.44888 2.043523,-4.68414 3.264455,-5.94515 l 1.136471,-1.17378 1.608495,0.14565 c 1.505361,0.1363 1.648829,0.10654 2.237514,-0.46429 0.345957,-0.33547 0.629015,-0.82393 0.629015,-1.08547 0,-0.57262 -1.123362,-1.19393 -2.158666,-1.19393 -1.089755,0 -4.154328,1.12928 -5.171779,1.90578 -0.492943,0.37621 -3.967111,-2.92412 -4.127082,-2.92412 -0.427866,0 2.831793,1.42291 3.437017,0.2106 0.271549,-0.54394 0.493728,-1.20803 0.493728,-1.47577 0,-0.41464 0.359807,-0.58686 2.427079,-1.16171 3.365048,-0.93572 3.085648,-1.511 -0.318444,-0.65566 -2.861668,0.71904 -4.48915,0.0372 -5.320874,-1.24543 -0.365064,-0.56298 -0.520232,-0.45653 0,0 0.843891,0.74055 2.324081,0.75717 4.327628,0.0486 1.480933,-0.52374 2.093716,-0.62448 3.153551,-0.51841 1.458883,0.146 1.689785,-0.1054 0.599106,-0.65231 -0.982524,-0.49268 -2.327665,-0.45026 -4.281826,0.13501 -1.589662,0.47611 -1.661955,0.47853 -1.972938,0.0661 -0.543849,-0.7212 -0.846821,-2.22831 -0.700581,-3.48496 0.07652,-0.65754 0.208403,-1.8671 0.293074,-2.68794 0.139071,-1.34818 0.22735,-1.53581 0.913387,-1.94145 0.81806,-0.48371 2.190957,-0.57525 3.551632,-0.23681 0.467389,0.11624 1.312272,0.27553 1.877516,0.35397 0.995874,0.13819 1.038753,0.11701 1.383709,-0.68355 0.388443,-0.90149 0.428387,-0.91418 2.930163,-0.93186 1.6247,-0.0115 1.70329,-0.0379 1.78356,-0.60061 0.12872,-0.90235 0.40453,-1.09868 2.54435,-1.81117 1.84269,-0.61356 2.25573,-0.6609 5.76605,-0.6609 l 7.92384,-0.4009 -2.6777,1.27742 c 1.83441,1.09755 4.80242,2.26116 6.26252,2.45521 0.61181,0.0813 3.70579,-0.43505 3.77221,-0.33083 0.0664,0.10422 -2.96477,1.20457 -3.6327,1.62858 -0.66793,0.424 -1.27252,0.91773 -1.34353,1.09717 -0.071,0.17944 0.24865,0.92927 0.71037,1.6663 1.81342,2.89468 2.80091,6.18673 2.80494,9.351 0.003,2.04533 -0.62699,5.28239 -1.35945,6.98958 -1.87659,4.37392 -2.27974,5.46866 -2.96459,8.05027 -0.90872,3.42547 -1.34526,6.48589 -1.21282,8.50273 0.0543,0.82681 3.62804,4.57689 3.53184,4.57689 -0.0962,0 -4.28414,-3.44442 -4.89645,-3.89763 -0.61231,-0.45321 -1.18119,-0.82402 -1.26417,-0.82402 -0.083,0 -0.094,0.48924 -0.0245,1.08721 0.13726,1.18094 0.2416,1.34316 4.67641,7.27075 3.16872,4.23533 4.16361,5.78819 5.20399,8.12253 0.43284,0.97117 0.96108,1.8982 1.17387,2.06006 0.86076,0.65475 2.53098,0.20907 3.67801,-0.98146 1.14127,-1.18453 0.93388,-4.81453 -0.50108,-8.77044 -0.38378,-1.05801 -1.68453,-3.86558 -2.89055,-6.23904 -2.86716,-5.64257 -3.64945,-7.97741 -3.81238,-11.37845 -0.21747,-4.53972 1.01494,-9.58074 3.34133,-13.6673 1.75976,-3.09124 1.96704,-3.94477 2.16962,-8.93452 0.15473,-3.81109 0.26302,-4.67822 0.73149,-5.85782 0.63068,-1.588 1.91352,-3.08791 2.83225,-3.3115 0.89653,-0.21819 0.70616,-1.03475 0,0 -0.94698,1.38757 -0.97332,4.13687 -0.52268,6.21414 0.20434,0.94191 0.42749,1.80038 0.49589,1.9077 0.0684,0.10733 0.5085,0.0395 0.97798,-0.15071 0.75898,-0.3075 0.94307,-0.30468 1.66065,0.0255 0.82832,0.38114 1.35992,1.17584 1.35992,2.03297 0,0.37206 -0.0989,0.44396 -0.4249,0.30878 -0.91803,-0.3807 -1.669,-0.34579 -2.42799,0.1129 -1.0564,0.63842 -1.04137,1.12412 0.031,1.00272 0.64873,-0.0734 0.99122,0.0556 1.6389,0.61763 0.77465,0.67219 0.81762,0.79183 0.79738,2.22009 -0.018,1.26843 -0.13753,1.67569 -0.74822,2.54916 -0.39976,0.57175 -0.80242,1.24012 -0.89482,1.48526 -0.27028,0.7171 -0.45112,0.26762 -0.43452,-1.08003 0.0169,-1.36944 -0.10583,-1.67442 -0.76932,-1.91212 -0.57027,-0.20431 -1.86632,0.4459 -1.86632,0.93629 0,0.20844 0.27315,0.62445 0.607,0.92446 0.66864,0.60088 0.81949,1.84594 0.33454,2.76123 -0.33839,0.63867 -1.41622,1.78001 -1.94272,2.05719 -0.34384,0.18102 -0.37863,0.0737 -0.27241,-0.84011 0.25449,-2.1893 -1.47757,-1.37597 -2.21793,1.04148 -1.02196,3.33695 -1.10427,9.10977 -0.18169,12.74319 0.84199,3.31602 2.96775,8.7829 4.16221,10.70411 0.24152,0.38847 0.82977,1.79845 1.30723,3.13329 1.48909,4.16314 1.72122,8.59167 0.56774,10.83125 -1.0118,1.96449 -3.10308,3.33475 -5.09546,3.33866 -0.36723,7.1e-4 -0.66769,0.11287 -0.66769,0.24922 0,0.13634 0.29262,1.1958 0.65027,2.35435 l 0.65028,2.10646 h 1.03789 c 0.57085,0 1.31165,-0.12095 1.64623,-0.26877 0.72458,-0.32013 2.98591,0.66538 2.98591,0.66538 0.0704,0.17788 4.08024,-0.41404 3.52084,1.29793 -0.5594,1.71196 -5.89797,6.82195 -6.47354,8.74222 -1.15047,3.83832 -1.67626,4.64085 -3.63288,5.54481 -0.5456,0.25207 -1.47911,0.94421 -2.07446,1.53808 -1.03217,1.02961 -1.14494,1.07944 -2.42799,1.0726 -0.74005,-0.004 -1.53747,-0.11554 -1.77205,-0.248 z m -22.13955,-78.96993 c 0.45881,-0.34477 0.45238,-0.36937 -0.24296,-0.92773 -0.8653,-0.69485 -1.10673,-0.59194 -1.10673,0.47176 0,0.9115 0.51291,1.08478 1.34969,0.45597 z"
       id="path75"
       inkscape:connector-curvature="0"
       sodipodi:nodetypes="ccccccscccccssccccssccccsccscccscccccscccccccsscccccscsccccscccscccccscscscsccccsscscscccccccccsccccccscscccccccccccssscscccscccscccccccscccccccccsccccssccccsccscccccccccccsc" />
  </g>
</svg>
